<?xml version="1.0" standalone="no"?>
<!DOCTYPE svg PUBLIC "-//W3C//DTD SVG 20010904//EN"
 "http://www.w3.org/TR/2001/REC-SVG-20010904/DTD/svg10.dtd">
<svg version="1.0" xmlns="http://www.w3.org/2000/svg"
 width="1280.000000pt" height="1280.000000pt" viewBox="0 0 1280.000000 1280.000000"
 preserveAspectRatio="xMidYMid meet">
<metadata>
Created by potrace 1.15, written by Peter Selinger 2001-2017
</metadata>
<g transform="translate(0.000000,1280.000000) scale(0.100000,-0.100000)"
fill="#000000" stroke="none">
<path d="M2270 8430 c-191 -19 -396 -67 -580 -137 -113 -42 -390 -181 -397
-198 -7 -19 47 -149 84 -199 65 -90 207 -182 553 -360 232 -119 318 -154 568
-232 331 -104 597 -192 845 -280 242 -87 248 -90 242 -114 -14 -65 -17 -180
-5 -228 17 -75 60 -135 111 -160 24 -12 139 -40 254 -62 116 -23 311 -66 434
-97 261 -64 338 -71 412 -35 59 29 130 100 158 160 l23 48 71 -18 c1408 -352
2604 -526 3747 -545 614 -10 1200 30 1711 117 64 11 119 20 123 20 3 0 6 29 6
65 l0 65 540 0 540 0 -43 39 c-62 57 -134 99 -207 122 -54 16 -112 22 -340 30
-362 12 -680 33 -680 45 0 2 139 298 310 658 171 360 310 659 310 664 0 5
-103 35 -229 67 l-228 57 -844 -563 c-475 -317 -853 -562 -864 -561 -39 2
-846 207 -833 211 7 2 365 93 795 201 431 109 785 199 787 201 11 12 276 452
274 454 -2 2 -67 11 -146 20 l-143 16 -241 -175 c-133 -97 -250 -176 -262
-176 -11 0 -354 -32 -761 -70 -407 -39 -934 -89 -1171 -111 l-431 -41 -479
122 c-1679 426 -1756 447 -2232 611 -676 234 -958 312 -1277 354 -150 20 -383
26 -505 15z"/>
<path d="M5015 5288 c-80 -225 -159 -446 -162 -455 -4 -10 10 -13 50 -13 l55
0 17 50 17 50 87 0 87 0 15 -47 15 -48 57 -3 56 -3 -15 43 c-9 24 -44 124 -79
223 -35 99 -66 188 -70 198 -6 13 -19 17 -66 17 -39 0 -61 -4 -64 -12z m94
-194 c12 -39 21 -76 21 -83 0 -7 -20 -11 -55 -11 -30 0 -55 3 -55 7 0 22 55
172 61 165 4 -4 17 -39 28 -78z"/>
<path d="M5320 5060 l0 -240 55 0 55 0 0 240 0 240 -55 0 -55 0 0 -240z"/>
<path d="M5460 5060 l0 -240 50 0 50 0 0 95 0 95 70 0 c97 0 110 -14 110 -115
l0 -75 51 0 51 0 -4 96 c-3 88 -5 97 -28 116 -22 18 -23 21 -7 29 45 26 60
109 29 168 -30 60 -67 71 -229 71 l-143 0 0 -240z m270 142 c27 -22 29 -65 5
-92 -15 -17 -31 -20 -97 -20 l-78 0 0 65 0 65 74 0 c56 0 79 -4 96 -18z"/>
<path d="M6040 5260 l0 -40 70 0 70 0 0 -200 0 -200 50 0 50 0 2 198 3 197 73
3 72 3 0 39 0 40 -195 0 -195 0 0 -40z"/>
<path d="M6450 5060 l0 -240 50 0 50 0 0 95 0 95 70 0 c97 0 110 -14 110 -115
l0 -75 51 0 51 0 -4 96 c-3 88 -5 97 -28 116 -22 18 -23 21 -7 29 47 27 61
121 27 177 -32 52 -69 62 -230 62 l-140 0 0 -240z m268 143 c31 -28 35 -56 11
-86 -19 -25 -26 -27 -100 -27 l-79 0 0 65 0 65 74 0 c56 0 79 -4 94 -17z"/>
<path d="M7011 5278 c-5 -13 -41 -115 -81 -228 -40 -113 -75 -211 -78 -217 -3
-10 11 -13 50 -13 l55 0 15 48 15 47 91 3 90 3 13 -51 13 -50 58 0 58 0 -11
28 c-9 22 -75 207 -146 410 l-15 42 -59 0 c-53 0 -60 -3 -68 -22z m98 -185
c11 -39 21 -76 21 -82 0 -7 -22 -11 -55 -11 -30 0 -55 3 -55 7 0 21 55 172 61
165 3 -4 16 -39 28 -79z"/>
<path d="M7184 5283 c3 -10 39 -117 79 -238 l74 -220 49 -3 49 -3 82 241 82
240 -54 0 -54 0 -26 -87 c-15 -49 -36 -121 -48 -160 -12 -40 -24 -73 -27 -73
-3 0 -27 72 -54 160 l-49 160 -54 0 c-47 0 -54 -2 -49 -17z"/>
<path d="M7620 5060 l0 -240 180 0 180 0 0 45 0 45 -130 0 -130 0 0 60 0 60
116 0 115 0 -3 43 -3 42 -114 2 -114 1 0 49 0 48 127 3 126 3 0 39 0 40 -175
0 -175 0 0 -240z"/>
<path d="M8000 5060 l0 -240 170 0 170 0 0 45 0 45 -120 0 -120 0 0 195 0 195
-50 0 -50 0 0 -240z"/>
<path d="M5934 4631 c-59 -27 -87 -72 -92 -146 -3 -50 0 -65 20 -94 40 -59 72
-76 143 -76 71 0 103 17 143 75 31 46 31 134 -1 181 -26 39 -97 79 -142 79
-16 0 -48 -9 -71 -19z m119 -25 c54 -23 80 -59 84 -118 3 -41 -1 -61 -17 -86
-52 -84 -185 -79 -232 9 -38 70 -10 155 62 191 42 22 61 22 103 4z"/>
<path d="M7013 4635 c-34 -15 -53 -41 -53 -75 0 -34 52 -78 100 -86 54 -9 83
-33 83 -69 0 -62 -86 -87 -141 -40 -28 23 -52 32 -52 19 0 -17 24 -46 50 -59
63 -32 147 -11 170 44 26 64 -9 113 -94 131 -71 15 -98 46 -72 84 21 32 66 42
105 21 17 -8 31 -20 31 -25 0 -6 7 -10 16 -10 26 0 12 32 -25 57 -39 26 -72
28 -118 8z"/>
<path d="M5580 4625 c0 -12 13 -15 55 -15 l54 0 3 -147 c4 -197 22 -197 26 -1
l3 147 56 3 c34 2 58 8 61 16 3 9 -27 12 -127 12 -110 0 -131 -2 -131 -15z"/>
<path d="M6244 4626 c-3 -9 -5 -68 -2 -132 l3 -116 37 -34 c33 -30 44 -34 93
-34 49 0 60 4 93 34 l37 34 0 129 c0 114 -2 128 -17 131 -16 3 -18 -8 -18
-123 0 -120 -1 -127 -25 -150 -31 -32 -101 -35 -136 -6 -22 18 -24 28 -29 147
-4 89 -9 129 -17 132 -7 2 -16 -3 -19 -12z"/>
<path d="M6592 4478 c2 -100 7 -163 13 -163 6 0 11 28 13 63 l3 62 37 0 c32 0
41 -5 56 -32 37 -65 68 -100 78 -90 7 7 -1 30 -26 69 -35 56 -36 59 -18 73 51
42 56 107 13 151 -27 27 -35 29 -100 29 l-71 0 2 -162z m145 110 c28 -26 29
-58 5 -88 -13 -17 -29 -22 -67 -23 l-50 -1 -3 67 -3 67 47 0 c35 0 54 -6 71
-22z"/>
<path d="M6852 4478 c4 -216 22 -214 26 2 2 139 0 160 -13 160 -13 0 -15 -21
-13 -162z"/>
<path d="M7252 4478 c4 -195 21 -221 28 -43 l5 119 57 -117 c32 -64 62 -117
68 -117 5 0 37 53 69 118 l60 117 1 -110 c0 -111 9 -150 30 -129 15 15 9 316
-7 321 -7 3 -40 -51 -81 -134 l-70 -138 -68 138 c-38 75 -74 137 -82 137 -10
0 -12 -35 -10 -162z"/>
</g>
</svg>
