<svg version="1.1" xmlns="http://www.w3.org/2000/svg" width="1280.000000pt" height="408.000000pt" viewBox="0 0 1280.000000 408.000000" preserveAspectRatio="xMidYMid meet" xmlns:xlink="http://www.w3.org/1999/xlink" transform="matrix(-1,1.2246467991473532e-16,1.2246467991473532e-16,1,0,0)">
<metadata>
Created by potrace 1.15, written by Peter Selinger 2001-2017
</metadata>
<g transform="translate(0.000000,408.000000) scale(0.100000,-0.100000)" fill="#000000" stroke="none">
<path d="M10907 3901 c-34 -5 -52 -14 -64 -31 -10 -14 -110 -149 -222 -300
-113 -151 -344 -464 -514 -695 -171 -231 -311 -422 -313 -424 -2 -2 -81 -21
-176 -42 -95 -21 -323 -73 -506 -115 -183 -42 -336 -73 -339 -70 -4 3 -12 1
-19 -5 -23 -19 -127 -38 -206 -39 l-77 0 -3 43 -3 42 -21 -38 -20 -39 -309 2
c-188 0 -315 5 -327 11 -21 11 -158 10 -201 -2 -15 -4 -879 -9 -1919 -10
l-1893 -2 3 37 c2 20 1 36 -2 36 -2 0 -14 -17 -26 -37 l-21 -38 -182 -3 c-104
-2 -188 1 -196 7 -8 5 -21 6 -30 0 -9 -4 -396 -13 -861 -18 -484 -5 -878 -14
-922 -20 -297 -41 -601 -125 -839 -231 -130 -57 -189 -102 -252 -192 -30 -43
-61 -75 -85 -87 -56 -28 -138 -121 -152 -169 -14 -55 -6 -83 41 -136 77 -87
252 -177 478 -245 l126 -38 -3 -65 -4 -65 144 -28 c78 -15 147 -32 152 -36 16
-14 -2 -23 -18 -10 -18 15 -42 1 -76 -41 -20 -26 -13 -47 10 -33 6 4 17 2 25
-5 10 -8 16 -8 26 3 23 25 52 -14 57 -77 4 -53 4 -54 -26 -61 -47 -10 -67 -39
-67 -97 0 -44 4 -53 34 -80 27 -24 39 -29 65 -24 17 4 54 9 81 11 39 4 55 10
72 32 49 61 12 173 -58 173 -27 0 -28 2 -22 33 3 17 7 34 9 36 2 2 -2 11 -9
19 -10 13 -9 14 3 7 12 -6 13 -5 2 6 -10 11 -8 17 10 31 18 14 21 21 12 34 -6
10 -17 19 -25 22 -9 2 -8 -1 4 -11 22 -19 22 -37 -2 -37 -20 0 -36 36 -20 46
5 3 9 16 9 30 0 17 5 24 19 24 16 0 21 9 26 43 l7 42 495 -3 c273 -1 499 -4
502 -6 3 -2 31 0 61 4 30 5 191 10 357 12 l301 3 7 -55 c15 -135 72 -237 151
-275 44 -21 188 -45 267 -45 39 0 64 -5 73 -15 20 -20 45 -20 38 0 -5 12 6 15
64 15 185 0 373 36 445 84 17 12 44 40 59 63 21 31 37 42 63 47 25 5 42 17 58
41 14 21 43 44 79 61 32 15 58 31 58 34 0 4 -10 12 -22 19 -21 11 -21 11 7 5
101 -20 175 -24 485 -24 l345 0 48 -94 49 -93 33 7 c19 4 36 5 39 2 4 -3 6
-25 6 -49 0 -40 -2 -43 -27 -44 l-28 -1 25 -9 c24 -8 24 -9 -2 -4 -16 3 -39 8
-53 11 -31 8 -58 -13 -51 -39 3 -14 1 -17 -12 -12 -35 15 -62 17 -97 5 -44
-14 -67 -48 -69 -98 -2 -107 86 -164 171 -112 35 21 33 22 74 -32 35 -48 119
-57 155 -17 13 14 20 16 31 8 7 -6 13 -17 13 -24 0 -7 11 -24 25 -39 20 -21
33 -26 72 -26 28 0 58 7 71 16 18 13 29 13 57 4 69 -23 130 14 142 83 7 47 -1
79 -33 116 -22 27 -33 31 -73 31 -46 0 -49 2 -151 102 -58 57 -108 103 -112
103 -5 0 -8 3 -8 8 0 4 0 16 0 26 0 15 10 21 40 26 43 7 47 16 30 61 -17 44
-4 48 127 37 65 -5 120 -5 121 -1 6 13 58 9 197 -13 l130 -22 34 -54 c18 -30
35 -53 37 -50 2 2 -3 35 -11 73 -25 120 -23 124 81 124 48 0 52 -2 70 -35 30
-56 43 -38 19 27 -4 10 10 14 57 15 35 1 82 5 104 8 40 6 42 4 53 -25 8 -25
15 -30 30 -25 18 5 19 2 14 -32 -3 -21 -11 -41 -17 -45 -7 -5 -7 -8 2 -8 7 0
11 -4 8 -9 -3 -4 -27 -1 -52 7 -46 15 -48 15 -65 -7 -10 -12 -15 -29 -12 -38
5 -13 3 -15 -13 -8 -71 31 -134 10 -161 -52 -19 -48 -10 -94 29 -138 25 -30
37 -35 73 -35 28 0 51 7 69 21 29 23 33 22 50 -13 6 -12 27 -33 46 -46 39 -26
84 -24 129 5 17 11 26 12 29 5 2 -6 13 -26 25 -44 34 -49 115 -60 159 -21 13
11 24 13 45 6 44 -14 112 0 134 28 42 55 33 151 -18 185 -16 10 -46 17 -72 17
-42 0 -48 5 -137 90 -52 49 -94 96 -94 103 0 8 -6 14 -13 14 -8 0 -19 10 -24
23 -10 22 -8 24 33 35 24 7 52 12 61 12 8 0 21 8 28 17 11 15 19 8 65 -62 l52
-80 -7 56 -6 56 82 31 82 31 512 0 512 1 19 -35 c28 -52 45 -45 24 9 l-9 26
264 -1 c151 0 267 -4 270 -10 4 -5 21 -9 38 -8 18 0 26 3 20 6 -7 2 -13 9 -13
14 0 6 4 8 8 5 13 -8 217 28 422 74 102 22 193 39 202 36 10 -2 18 -1 18 4 0
4 33 16 73 25 39 10 177 46 304 81 151 40 241 60 257 56 13 -4 36 -22 51 -39
34 -41 57 -43 54 -5 -4 48 1 61 24 67 12 4 31 16 42 26 12 11 188 68 430 139
349 103 688 208 691 213 0 1 -2 37 -5 80 -5 63 -3 78 9 82 34 10 992 196 1188
231 116 21 212 41 212 45 0 11 -205 22 -279 15 -36 -3 -345 -49 -686 -102
l-620 -96 -190 27 c-104 15 -193 31 -197 34 -4 3 12 78 36 166 23 88 55 211
71 273 27 110 27 113 9 127 -18 14 -18 14 3 15 16 0 22 7 25 27 2 22 9 29 38
34 73 14 157 32 210 44 54 13 52 13 -88 14 -79 1 -141 5 -138 10 9 13 296
1127 296 1147 0 8 -38 14 -107 18 -60 4 -121 9 -138 11 -16 1 -51 0 -78 -4z
m-412 -1834 c16 -4 15 -5 -5 -6 -14 0 -37 11 -52 24 -39 34 -35 43 5 12 18
-13 41 -27 52 -30z m68 -14 c-7 -2 -21 -2 -30 0 -10 3 -4 5 12 5 17 0 24 -2
18 -5z m82 -9 c47 -14 48 -14 10 -9 -22 2 -48 5 -58 5 -10 0 -15 5 -12 10 3 6
7 10 8 10 1 -1 25 -8 52 -16z m-3997 -1249 c-9 -9 -30 14 -23 25 6 9 10 8 17
-4 6 -10 8 -19 6 -21z m107 25 c3 -5 -2 -21 -11 -35 -13 -20 -19 -23 -25 -13
-16 25 -10 58 10 58 11 0 23 -4 26 -10z m58 -40 c-3 -11 -14 -20 -25 -20 -16
0 -17 3 -8 20 6 11 17 20 24 20 9 0 12 -7 9 -20z m100 -88 c8 -38 2 -57 -9
-26 -12 32 -54 84 -70 84 -14 0 -19 21 -8 33 13 13 79 -56 87 -91z m-5691 21
c-10 -28 -10 -28 -11 12 -1 28 2 36 10 28 8 -8 8 -19 1 -40z m4313 -43 c3 -5
1 -10 -4 -10 -6 0 -11 5 -11 10 0 6 2 10 4 10 3 0 8 -4 11 -10z m-142 -30 c6
-22 0 -25 -22 -11 -7 5 -10 14 -7 20 11 17 23 13 29 -9z m107 -1 c9 -16 8 -25
-6 -40 -25 -28 -31 -24 -36 21 -3 33 0 40 14 40 9 0 22 -9 28 -21z m63 -29
c-7 -28 -13 -25 -13 6 0 14 4 23 9 20 5 -3 7 -15 4 -26z m74 -35 c26 -25 42
-45 35 -45 -7 0 -12 -5 -12 -11 0 -5 5 -7 10 -4 15 9 12 -1 -4 -14 -12 -10
-18 -6 -32 24 -9 20 -28 43 -40 52 -24 15 -33 43 -15 43 6 0 31 -20 58 -45z"></path>
</g>
</svg>